<svg xmlns="http://www.w3.org/2000/svg" xmlns:xlink="http://www.w3.org/1999/xlink" width="500" zoomAndPan="magnify" viewBox="0 0 375 374.999991" height="500" preserveAspectRatio="xMidYMid meet" version="1.0"><defs><clipPath id="e55c32c69d"><path d="M 14.734375 80.046875 L 360.234375 80.046875 L 360.234375 209.636719 L 14.734375 209.636719 Z M 14.734375 80.046875 " clip-rule="nonzero"/></clipPath><clipPath id="2d159719d7"><path d="M 63 165.007812 L 85.96875 165.007812 L 85.96875 294.980469 L 63 294.980469 Z M 63 165.007812 " clip-rule="nonzero"/></clipPath><clipPath id="212428613d"><path d="M 196 101.902344 L 219 101.902344 L 219 157 L 196 157 Z M 196 101.902344 " clip-rule="nonzero"/></clipPath><clipPath id="3f820fcedd"><path d="M 129.589844 116 L 245.089844 116 L 245.089844 187.402344 L 129.589844 187.402344 Z M 129.589844 116 " clip-rule="nonzero"/></clipPath></defs><g clip-path="url(#e55c32c69d)"><path fill="#000000" d="M 77.433594 121.167969 L 77.433594 121.148438 M 360.1875 144.582031 L 360.238281 144.566406 L 360.136719 144.566406 L 281.976562 115.375 L 281.933594 115.320312 L 281.871094 115.332031 L 227.890625 95.175781 L 227.867188 95.164062 L 227.847656 95.117188 L 227.773438 95.132812 L 187.46875 80.074219 L 187.484375 80.046875 L 122.769531 104.214844 L 77.421875 121.152344 L 14.734375 144.566406 L 96.351562 175.046875 L 99.726562 176.308594 L 146.96875 193.953125 L 187.484375 209.085938 L 233.671875 191.835938 L 233.675781 191.835938 L 275.25 176.308594 L 286.0625 172.269531 L 360.160156 144.59375 L 360.210938 144.59375 L 360.1875 144.582031 " fill-opacity="1" fill-rule="nonzero"/></g><path fill="#000000" d="M 99.726562 183.652344 L 99.726562 218.179688 L 99.730469 218.179688 C 99.730469 218.207031 99.726562 218.230469 99.726562 218.257812 C 99.726562 232.625 109.453125 245.632812 125.199219 255.078125 C 141.097656 264.625 163.128906 270.535156 187.484375 270.535156 C 190.625 270.535156 193.71875 270.4375 196.769531 270.246094 L 196.773438 270.242188 C 220.355469 268.765625 241.15625 261.726562 255.40625 251.363281 C 267.804688 242.351562 275.25 230.824219 275.25 218.257812 C 275.25 218.230469 275.246094 218.207031 275.246094 218.179688 L 275.25 218.179688 L 275.25 183.652344 L 187.484375 216.433594 L 99.726562 183.652344 " fill-opacity="1" fill-rule="nonzero"/><g clip-path="url(#2d159719d7)"><path fill="#000000" d="M 82.757812 261.605469 L 82.710938 261.136719 L 79.863281 231.542969 L 79.738281 230.242188 L 78.367188 215.992188 L 79.519531 215.992188 L 79.519531 200.148438 C 81.105469 198.726562 82.109375 196.664062 82.109375 194.359375 C 82.109375 193.179688 81.84375 192.0625 81.375 191.0625 C 80.609375 189.4375 79.300781 188.117188 77.683594 187.335938 L 77.683594 168.078125 L 70.804688 165.507812 L 70.804688 187.402344 C 68.261719 188.6875 66.515625 191.316406 66.515625 194.359375 C 66.515625 196.664062 67.519531 198.726562 69.105469 200.148438 L 69.105469 215.992188 L 70.363281 215.992188 L 69.53125 224.523438 L 68.496094 235.136719 L 65.9375 261.285156 L 65.929688 261.375 L 64.542969 275.550781 L 63.304688 288.234375 C 63.273438 288.507812 63.269531 288.816406 63.304688 289.097656 C 63.71875 292.574219 68.988281 295.199219 75.066406 294.960938 C 81.144531 294.726562 85.734375 291.714844 85.320312 288.234375 L 82.757812 261.605469 " fill-opacity="1" fill-rule="nonzero"/></g><path fill="#16a34a" d="M 148.683594 149.320312 L 148.792969 149.320312 C 149.675781 149.351562 150.503906 149.75 151.078125 150.414062 L 160.515625 161.339844 L 160.515625 129.046875 L 138.46875 129.046875 L 138.46875 158.21875 L 146.445312 150.246094 C 147.042969 149.644531 147.839844 149.320312 148.683594 149.320312 Z M 148.683594 149.320312 " fill-opacity="1" fill-rule="nonzero"/><path fill="#16a34a" d="M 189.628906 163.34375 L 189.628906 148.265625 L 167.582031 148.265625 L 167.582031 169.519531 L 174.867188 177.953125 Z M 189.628906 163.34375 " fill-opacity="1" fill-rule="nonzero"/><g clip-path="url(#212428613d)"><path fill="#16a34a" d="M 218.746094 101.910156 L 196.699219 101.910156 L 196.699219 156.351562 L 218.746094 134.535156 Z M 218.746094 101.910156 " fill-opacity="1" fill-rule="nonzero"/></g><g clip-path="url(#3f820fcedd)"><path fill="#16a34a" d="M 244.894531 116.816406 C 244.507812 116.375 243.921875 116.171875 243.34375 116.277344 L 228.777344 118.976562 C 227.875 119.144531 227.277344 120.011719 227.445312 120.914062 C 227.613281 121.816406 228.480469 122.414062 229.382812 122.246094 L 238.21875 120.609375 L 174.78125 183.382812 L 149.941406 154.625 C 149.640625 154.273438 149.203125 154.066406 148.746094 154.046875 C 148.28125 154.035156 147.835938 154.207031 147.507812 154.535156 L 129.589844 172.449219 L 129.589844 177.152344 L 148.59375 158.148438 L 173.429688 186.902344 C 173.730469 187.25 174.164062 187.457031 174.621094 187.472656 C 175.082031 187.488281 175.53125 187.316406 175.859375 186.996094 L 240.128906 123.394531 L 237.503906 131.539062 C 237.21875 132.410156 237.699219 133.347656 238.574219 133.632812 C 238.742188 133.6875 238.914062 133.710938 239.085938 133.710938 C 239.785156 133.710938 240.4375 133.265625 240.667969 132.558594 L 245.226562 118.421875 C 245.40625 117.863281 245.28125 117.253906 244.894531 116.816406 Z M 244.894531 116.816406 " fill-opacity="1" fill-rule="nonzero"/></g></svg>